<svg xmlns="http://www.w3.org/2000/svg" xmlns:xlink="http://www.w3.org/1999/xlink" width="650" zoomAndPan="magnify" viewBox="0 0 487.5 112.499997" height="150" preserveAspectRatio="xMidYMid meet" version="1.0"><defs><g/><clipPath id="2140d0a76a"><path d="M 36 3.933594 L 108.351562 3.933594 L 108.351562 108.46875 L 36 108.46875 Z M 36 3.933594 " clip-rule="nonzero"/></clipPath><clipPath id="14e237e55a"><path d="M 0.828125 8 L 16 8 L 16 105 L 0.828125 105 Z M 0.828125 8 " clip-rule="nonzero"/></clipPath></defs><g fill="#feaf39" fill-opacity="1"><g transform="translate(123.92091, 53.265805)"><g><path d="M 10.4375 0 L 3.921875 0 L 3.921875 -31.203125 L 21.8125 -31.203125 L 21.8125 -25.78125 L 10.4375 -25.78125 L 10.4375 -17.734375 L 21.015625 -17.734375 L 21.015625 -12.328125 L 10.4375 -12.328125 Z M 10.4375 0 "/></g></g><g transform="translate(147.907171, 53.265805)"><g><path d="M 32.25 -15.640625 C 32.25 -10.472656 30.96875 -6.503906 28.40625 -3.734375 C 25.84375 -0.960938 22.171875 0.421875 17.390625 0.421875 C 12.609375 0.421875 8.9375 -0.960938 6.375 -3.734375 C 3.820312 -6.503906 2.546875 -10.488281 2.546875 -15.6875 C 2.546875 -20.875 3.828125 -24.835938 6.390625 -27.578125 C 8.960938 -30.316406 12.644531 -31.6875 17.4375 -31.6875 C 22.226562 -31.6875 25.894531 -30.304688 28.4375 -27.546875 C 30.976562 -24.785156 32.25 -20.816406 32.25 -15.640625 Z M 9.46875 -15.640625 C 9.46875 -12.148438 10.128906 -9.523438 11.453125 -7.765625 C 12.773438 -6.003906 14.753906 -5.125 17.390625 -5.125 C 22.671875 -5.125 25.3125 -8.628906 25.3125 -15.640625 C 25.3125 -22.671875 22.6875 -26.1875 17.4375 -26.1875 C 14.800781 -26.1875 12.8125 -25.300781 11.46875 -23.53125 C 10.132812 -21.757812 9.46875 -19.128906 9.46875 -15.640625 Z M 9.46875 -15.640625 "/></g></g><g transform="translate(182.691517, 53.265805)"><g><path d="M 32.25 -15.640625 C 32.25 -10.472656 30.96875 -6.503906 28.40625 -3.734375 C 25.84375 -0.960938 22.171875 0.421875 17.390625 0.421875 C 12.609375 0.421875 8.9375 -0.960938 6.375 -3.734375 C 3.820312 -6.503906 2.546875 -10.488281 2.546875 -15.6875 C 2.546875 -20.875 3.828125 -24.835938 6.390625 -27.578125 C 8.960938 -30.316406 12.644531 -31.6875 17.4375 -31.6875 C 22.226562 -31.6875 25.894531 -30.304688 28.4375 -27.546875 C 30.976562 -24.785156 32.25 -20.816406 32.25 -15.640625 Z M 9.46875 -15.640625 C 9.46875 -12.148438 10.128906 -9.523438 11.453125 -7.765625 C 12.773438 -6.003906 14.753906 -5.125 17.390625 -5.125 C 22.671875 -5.125 25.3125 -8.628906 25.3125 -15.640625 C 25.3125 -22.671875 22.6875 -26.1875 17.4375 -26.1875 C 14.800781 -26.1875 12.8125 -25.300781 11.46875 -23.53125 C 10.132812 -21.757812 9.46875 -19.128906 9.46875 -15.640625 Z M 9.46875 -15.640625 "/></g></g><g transform="translate(217.475863, 53.265805)"><g><path d="M 29.8125 -15.890625 C 29.8125 -10.753906 28.347656 -6.820312 25.421875 -4.09375 C 22.503906 -1.363281 18.285156 0 12.765625 0 L 3.921875 0 L 3.921875 -31.203125 L 13.71875 -31.203125 C 18.8125 -31.203125 22.765625 -29.851562 25.578125 -27.15625 C 28.398438 -24.46875 29.8125 -20.710938 29.8125 -15.890625 Z M 22.9375 -15.734375 C 22.9375 -22.429688 19.976562 -25.78125 14.0625 -25.78125 L 10.546875 -25.78125 L 10.546875 -5.46875 L 13.375 -5.46875 C 19.75 -5.46875 22.9375 -8.890625 22.9375 -15.734375 Z M 22.9375 -15.734375 "/></g></g><g transform="translate(249.827439, 53.265805)"><g><path d="M 13.640625 -18.359375 L 20.140625 -31.203125 L 27.265625 -31.203125 L 16.921875 -12.140625 L 16.921875 0 L 10.34375 0 L 10.34375 -11.921875 L 0 -31.203125 L 7.171875 -31.203125 Z M 13.640625 -18.359375 "/></g></g><g transform="translate(277.100073, 53.265805)"><g><path d="M 17.140625 0 L 9.625 -24.46875 L 9.4375 -24.46875 C 9.707031 -19.488281 9.84375 -16.171875 9.84375 -14.515625 L 9.84375 0 L 3.921875 0 L 3.921875 -31.203125 L 12.9375 -31.203125 L 20.3125 -7.34375 L 20.4375 -7.34375 L 28.28125 -31.203125 L 37.28125 -31.203125 L 37.28125 0 L 31.109375 0 L 31.109375 -14.765625 C 31.109375 -15.460938 31.117188 -16.265625 31.140625 -17.171875 C 31.160156 -18.085938 31.257812 -20.507812 31.4375 -24.4375 L 31.234375 -24.4375 L 23.203125 0 Z M 17.140625 0 "/></g></g><g transform="translate(318.307786, 53.265805)"><g><path d="M 23.03125 0 L 20.765625 -7.421875 L 9.390625 -7.421875 L 7.125 0 L 0 0 L 11.015625 -31.328125 L 19.09375 -31.328125 L 30.15625 0 Z M 19.1875 -12.96875 C 17.09375 -19.695312 15.910156 -23.503906 15.640625 -24.390625 C 15.378906 -25.273438 15.195312 -25.972656 15.09375 -26.484375 C 14.613281 -24.660156 13.265625 -20.15625 11.046875 -12.96875 Z M 19.1875 -12.96875 "/></g></g><g transform="translate(348.461333, 53.265805)"><g><path d="M 31.609375 0 L 23.203125 0 L 9.625 -23.59375 L 9.4375 -23.59375 C 9.707031 -19.425781 9.84375 -16.457031 9.84375 -14.6875 L 9.84375 0 L 3.921875 0 L 3.921875 -31.203125 L 12.265625 -31.203125 L 25.828125 -7.828125 L 25.96875 -7.828125 C 25.757812 -11.878906 25.65625 -14.75 25.65625 -16.4375 L 25.65625 -31.203125 L 31.609375 -31.203125 Z M 31.609375 0 "/></g></g><g transform="translate(383.992582, 53.265805)"><g><path d="M 23.03125 0 L 20.765625 -7.421875 L 9.390625 -7.421875 L 7.125 0 L 0 0 L 11.015625 -31.328125 L 19.09375 -31.328125 L 30.15625 0 Z M 19.1875 -12.96875 C 17.09375 -19.695312 15.910156 -23.503906 15.640625 -24.390625 C 15.378906 -25.273438 15.195312 -25.972656 15.09375 -26.484375 C 14.613281 -24.660156 13.265625 -20.15625 11.046875 -12.96875 Z M 19.1875 -12.96875 "/></g></g><g transform="translate(414.146128, 53.265805)"><g><path d="M 15.765625 -17.515625 L 28.140625 -17.515625 L 28.140625 -1.34375 C 26.140625 -0.6875 24.253906 -0.226562 22.484375 0.03125 C 20.710938 0.289062 18.898438 0.421875 17.046875 0.421875 C 12.335938 0.421875 8.742188 -0.957031 6.265625 -3.71875 C 3.785156 -6.488281 2.546875 -10.460938 2.546875 -15.640625 C 2.546875 -20.679688 3.984375 -24.609375 6.859375 -27.421875 C 9.742188 -30.234375 13.738281 -31.640625 18.84375 -31.640625 C 22.039062 -31.640625 25.128906 -31 28.109375 -29.71875 L 25.90625 -24.4375 C 23.625 -25.570312 21.253906 -26.140625 18.796875 -26.140625 C 15.941406 -26.140625 13.648438 -25.175781 11.921875 -23.25 C 10.203125 -21.332031 9.34375 -18.753906 9.34375 -15.515625 C 9.34375 -12.128906 10.035156 -9.539062 11.421875 -7.75 C 12.816406 -5.96875 14.835938 -5.078125 17.484375 -5.078125 C 18.859375 -5.078125 20.257812 -5.21875 21.6875 -5.5 L 21.6875 -12.015625 L 15.765625 -12.015625 Z M 15.765625 -17.515625 "/></g></g><g transform="translate(445.793481, 53.265805)"><g><path d="M 21.890625 0 L 3.921875 0 L 3.921875 -31.203125 L 21.890625 -31.203125 L 21.890625 -25.78125 L 10.546875 -25.78125 L 10.546875 -18.921875 L 21.109375 -18.921875 L 21.109375 -13.515625 L 10.546875 -13.515625 L 10.546875 -5.46875 L 21.890625 -5.46875 Z M 21.890625 0 "/></g></g></g><path fill="#feaf39" d="M 37.613281 85.476562 C 42.925781 88.800781 49.199219 90.722656 55.910156 90.722656 C 74.996094 90.722656 90.523438 75.195312 90.523438 56.109375 C 90.523438 37.027344 74.996094 21.496094 55.910156 21.496094 C 52.480469 21.496094 49.167969 22 46.039062 22.933594 L 45.851562 41.027344 C 45.828125 43.132812 44.808594 45.144531 43.125 46.40625 L 36.839844 51.128906 Z M 37.613281 85.476562 " fill-opacity="1" fill-rule="nonzero"/><g clip-path="url(#2140d0a76a)"><path fill="#feaf39" d="M 55.910156 3.929688 C 51.851562 3.929688 47.894531 4.394531 44.101562 5.273438 C 45.375 6.226562 46.191406 7.742188 46.171875 9.449219 L 46.074219 19.125 C 49.210938 18.289062 52.507812 17.84375 55.910156 17.84375 C 77.011719 17.84375 94.175781 35.007812 94.175781 56.109375 C 94.175781 77.207031 77.007812 94.371094 55.910156 94.371094 C 49.324219 94.371094 43.125 92.699219 37.707031 89.761719 L 37.945312 100.347656 C 37.980469 101.894531 37.554688 103.378906 36.738281 104.648438 C 42.671875 106.992188 49.140625 108.28125 55.910156 108.28125 C 84.726562 108.28125 108.085938 84.921875 108.085938 56.105469 C 108.085938 27.289062 84.726562 3.929688 55.910156 3.929688 Z M 55.910156 3.929688 " fill-opacity="1" fill-rule="nonzero"/></g><path fill="#feaf39" d="M 34.320312 48.449219 L 40.933594 43.480469 C 41.71875 42.890625 42.1875 41.96875 42.199219 40.984375 L 42.371094 24.25 L 42.523438 9.410156 C 42.535156 8.578125 41.871094 7.898438 41.039062 7.894531 C 41.035156 7.894531 41.027344 7.894531 41.023438 7.894531 C 40.234375 7.894531 39.582031 8.503906 39.527344 9.289062 L 38.828125 21.875 L 37.996094 36.769531 C 37.914062 37.96875 37.011719 38.992188 35.816406 39.125 C 35.722656 39.132812 35.628906 39.140625 35.539062 39.140625 C 34.195312 39.140625 33.101562 38.066406 33.078125 36.726562 L 32.996094 30.191406 L 32.941406 25.527344 L 32.886719 21.089844 L 32.742188 9.332031 C 32.726562 8.566406 32.167969 7.886719 31.40625 7.804688 C 31.351562 7.800781 31.296875 7.796875 31.238281 7.796875 C 30.433594 7.796875 29.769531 8.429688 29.738281 9.238281 L 29.679688 11.003906 L 29.117188 28.113281 L 28.90625 34.492188 L 28.835938 36.679688 C 28.78125 37.996094 27.695312 39.042969 26.378906 39.042969 C 26.367188 39.042969 26.359375 39.042969 26.351562 39.042969 C 26.265625 39.042969 26.179688 39.035156 26.09375 39.027344 C 26.09375 39.027344 26.089844 39.027344 26.085938 39.027344 C 26.007812 39.019531 25.925781 39.003906 25.847656 38.984375 C 24.78125 38.753906 23.96875 37.832031 23.917969 36.703125 L 23.867188 35.230469 L 23.175781 15.492188 L 22.953125 9.191406 C 22.914062 8.429688 22.34375 7.769531 21.582031 7.703125 C 21.539062 7.703125 21.496094 7.699219 21.449219 7.699219 C 20.628906 7.699219 19.957031 8.359375 19.949219 9.183594 L 19.855469 18.40625 L 19.625 40.753906 C 19.625 40.863281 19.628906 40.972656 19.640625 41.078125 C 19.640625 41.109375 19.644531 41.132812 19.648438 41.164062 C 19.660156 41.265625 19.675781 41.367188 19.699219 41.464844 C 19.703125 41.488281 19.710938 41.519531 19.71875 41.546875 C 19.738281 41.617188 19.757812 41.6875 19.777344 41.753906 C 19.792969 41.796875 19.804688 41.839844 19.824219 41.882812 C 19.847656 41.949219 19.875 42.019531 19.90625 42.082031 C 19.933594 42.144531 19.960938 42.203125 19.996094 42.265625 C 20.015625 42.300781 20.03125 42.335938 20.058594 42.375 C 20.085938 42.421875 20.117188 42.472656 20.148438 42.523438 C 20.335938 42.808594 20.566406 43.0625 20.839844 43.277344 L 27.347656 48.375 C 28.074219 48.941406 28.480469 49.824219 28.441406 50.738281 L 27.367188 75.644531 L 27.125 81.277344 L 26.914062 86.171875 L 26.304688 100.34375 C 26.203125 102.605469 28 104.496094 30.261719 104.519531 C 30.277344 104.519531 30.289062 104.519531 30.304688 104.519531 C 31.507812 104.519531 32.585938 103.988281 33.320312 103.144531 C 33.398438 103.054688 33.472656 102.964844 33.539062 102.867188 C 33.542969 102.863281 33.546875 102.859375 33.550781 102.855469 C 33.617188 102.761719 33.679688 102.671875 33.734375 102.574219 C 33.742188 102.5625 33.75 102.550781 33.753906 102.535156 C 33.808594 102.449219 33.859375 102.355469 33.902344 102.261719 C 33.914062 102.238281 33.925781 102.214844 33.9375 102.191406 C 33.976562 102.105469 34.011719 102.019531 34.050781 101.929688 C 34.0625 101.894531 34.074219 101.859375 34.085938 101.824219 C 34.113281 101.742188 34.144531 101.664062 34.164062 101.578125 C 34.179688 101.527344 34.1875 101.476562 34.199219 101.425781 C 34.21875 101.355469 34.234375 101.28125 34.246094 101.210938 C 34.257812 101.140625 34.269531 101.0625 34.277344 100.992188 C 34.28125 100.9375 34.292969 100.882812 34.296875 100.828125 C 34.308594 100.699219 34.3125 100.566406 34.308594 100.429688 L 33.914062 82.800781 L 33.191406 50.792969 C 33.160156 49.871094 33.582031 49 34.320312 48.449219 Z M 34.320312 48.449219 " fill-opacity="1" fill-rule="nonzero"/><g clip-path="url(#14e237e55a)"><path fill="#feaf39" d="M 13.046875 8.472656 C 12.902344 8.472656 12.753906 8.523438 12.628906 8.648438 L 7.34375 13.867188 C 5.976562 15.214844 5.117188 16.996094 4.921875 18.910156 L 0.925781 57.476562 C 0.84375 58.269531 1.320312 59.011719 2.070312 59.265625 L 7.5625 61.136719 C 8.496094 61.453125 9.105469 62.355469 9.054688 63.339844 L 7.105469 100.386719 C 7.03125 102.648438 8.84375 104.523438 11.105469 104.523438 C 13.367188 104.523438 15.183594 102.648438 15.109375 100.386719 L 13.65625 9.066406 C 13.652344 8.707031 13.355469 8.472656 13.046875 8.472656 Z M 13.046875 8.472656 " fill-opacity="1" fill-rule="nonzero"/></g><g fill="#ffffff" fill-opacity="1"><g transform="translate(175.230241, 88.881226)"><g><path d="M 11.875 -4.609375 C 11.875 -3.109375 11.332031 -1.925781 10.25 -1.0625 C 9.175781 -0.195312 7.679688 0.234375 5.765625 0.234375 C 3.992188 0.234375 2.425781 -0.0976562 1.0625 -0.765625 L 1.0625 -4.03125 C 2.1875 -3.53125 3.132812 -3.175781 3.90625 -2.96875 C 4.675781 -2.769531 5.382812 -2.671875 6.03125 -2.671875 C 6.800781 -2.671875 7.390625 -2.816406 7.796875 -3.109375 C 8.210938 -3.410156 8.421875 -3.851562 8.421875 -4.4375 C 8.421875 -4.757812 8.328125 -5.046875 8.140625 -5.296875 C 7.960938 -5.554688 7.695312 -5.800781 7.34375 -6.03125 C 7 -6.269531 6.285156 -6.644531 5.203125 -7.15625 C 4.191406 -7.632812 3.429688 -8.09375 2.921875 -8.53125 C 2.421875 -8.96875 2.019531 -9.472656 1.71875 -10.046875 C 1.414062 -10.628906 1.265625 -11.3125 1.265625 -12.09375 C 1.265625 -13.5625 1.757812 -14.710938 2.75 -15.546875 C 3.738281 -16.390625 5.113281 -16.8125 6.875 -16.8125 C 7.726562 -16.8125 8.546875 -16.707031 9.328125 -16.5 C 10.117188 -16.300781 10.941406 -16.015625 11.796875 -15.640625 L 10.65625 -12.90625 C 9.769531 -13.269531 9.035156 -13.523438 8.453125 -13.671875 C 7.878906 -13.816406 7.3125 -13.890625 6.75 -13.890625 C 6.09375 -13.890625 5.582031 -13.734375 5.21875 -13.421875 C 4.863281 -13.109375 4.6875 -12.703125 4.6875 -12.203125 C 4.6875 -11.898438 4.757812 -11.628906 4.90625 -11.390625 C 5.050781 -11.160156 5.28125 -10.9375 5.59375 -10.71875 C 5.90625 -10.507812 6.648438 -10.125 7.828125 -9.5625 C 9.367188 -8.820312 10.425781 -8.078125 11 -7.328125 C 11.582031 -6.585938 11.875 -5.679688 11.875 -4.609375 Z M 11.875 -4.609375 "/></g></g></g><g fill="#ffffff" fill-opacity="1"><g transform="translate(188.017798, 88.881226)"><g><path d="M 12.234375 0 L 11.03125 -3.953125 L 4.984375 -3.953125 L 3.78125 0 L 0 0 L 5.84375 -16.640625 L 10.140625 -16.640625 L 16.015625 0 Z M 10.1875 -6.890625 C 9.082031 -10.460938 8.457031 -12.484375 8.3125 -12.953125 C 8.175781 -13.421875 8.078125 -13.789062 8.015625 -14.0625 C 7.765625 -13.101562 7.050781 -10.710938 5.875 -6.890625 Z M 10.1875 -6.890625 "/></g></g></g><g fill="#ffffff" fill-opacity="1"><g transform="translate(204.036254, 88.881226)"><g><path d="M 2.09375 -16.578125 L 7.25 -16.578125 C 9.59375 -16.578125 11.296875 -16.238281 12.359375 -15.5625 C 13.421875 -14.894531 13.953125 -13.832031 13.953125 -12.375 C 13.953125 -11.382812 13.71875 -10.570312 13.25 -9.9375 C 12.789062 -9.300781 12.175781 -8.921875 11.40625 -8.796875 L 11.40625 -8.6875 C 12.457031 -8.445312 13.210938 -8.003906 13.671875 -7.359375 C 14.140625 -6.722656 14.375 -5.875 14.375 -4.8125 C 14.375 -3.300781 13.828125 -2.117188 12.734375 -1.265625 C 11.640625 -0.421875 10.15625 0 8.28125 0 L 2.09375 0 Z M 5.59375 -10.015625 L 7.640625 -10.015625 C 8.585938 -10.015625 9.273438 -10.160156 9.703125 -10.453125 C 10.128906 -10.742188 10.34375 -11.234375 10.34375 -11.921875 C 10.34375 -12.554688 10.109375 -13.007812 9.640625 -13.28125 C 9.179688 -13.5625 8.453125 -13.703125 7.453125 -13.703125 L 5.59375 -13.703125 Z M 5.59375 -7.21875 L 5.59375 -2.90625 L 7.890625 -2.90625 C 8.859375 -2.90625 9.570312 -3.085938 10.03125 -3.453125 C 10.488281 -3.828125 10.71875 -4.394531 10.71875 -5.15625 C 10.71875 -6.53125 9.738281 -7.21875 7.78125 -7.21875 Z M 5.59375 -7.21875 "/></g></g></g><g fill="#ffffff" fill-opacity="1"><g transform="translate(219.63526, 88.881226)"><g><path d="M 17.125 -8.3125 C 17.125 -5.5625 16.441406 -3.445312 15.078125 -1.96875 C 13.722656 -0.5 11.773438 0.234375 9.234375 0.234375 C 6.703125 0.234375 4.753906 -0.5 3.390625 -1.96875 C 2.023438 -3.445312 1.34375 -5.566406 1.34375 -8.328125 C 1.34375 -11.085938 2.023438 -13.191406 3.390625 -14.640625 C 4.753906 -16.097656 6.710938 -16.828125 9.265625 -16.828125 C 11.804688 -16.828125 13.75 -16.09375 15.09375 -14.625 C 16.445312 -13.164062 17.125 -11.0625 17.125 -8.3125 Z M 5.03125 -8.3125 C 5.03125 -6.457031 5.378906 -5.0625 6.078125 -4.125 C 6.785156 -3.1875 7.835938 -2.71875 9.234375 -2.71875 C 12.046875 -2.71875 13.453125 -4.582031 13.453125 -8.3125 C 13.453125 -12.039062 12.054688 -13.90625 9.265625 -13.90625 C 7.867188 -13.90625 6.8125 -13.4375 6.09375 -12.5 C 5.382812 -11.5625 5.03125 -10.164062 5.03125 -8.3125 Z M 5.03125 -8.3125 "/></g></g></g><g fill="#ffffff" fill-opacity="1"><g transform="translate(238.113733, 88.881226)"><g><path d="M 5.59375 -9.21875 L 6.734375 -9.21875 C 7.847656 -9.21875 8.664062 -9.398438 9.1875 -9.765625 C 9.71875 -10.140625 9.984375 -10.722656 9.984375 -11.515625 C 9.984375 -12.304688 9.710938 -12.867188 9.171875 -13.203125 C 8.628906 -13.535156 7.796875 -13.703125 6.671875 -13.703125 L 5.59375 -13.703125 Z M 5.59375 -6.359375 L 5.59375 0 L 2.09375 0 L 2.09375 -16.578125 L 6.921875 -16.578125 C 9.171875 -16.578125 10.832031 -16.164062 11.90625 -15.34375 C 12.988281 -14.519531 13.53125 -13.273438 13.53125 -11.609375 C 13.53125 -10.628906 13.257812 -9.757812 12.71875 -9 C 12.1875 -8.25 11.429688 -7.65625 10.453125 -7.21875 C 12.941406 -3.488281 14.566406 -1.082031 15.328125 0 L 11.421875 0 L 7.46875 -6.359375 Z M 5.59375 -6.359375 "/></g></g></g><g fill="#ffffff" fill-opacity="1"><g transform="translate(253.440663, 88.881226)"><g/></g></g><g fill="#ffffff" fill-opacity="1"><g transform="translate(259.471674, 88.881226)"><g><path d="M 2.09375 -16.578125 L 7.25 -16.578125 C 9.59375 -16.578125 11.296875 -16.238281 12.359375 -15.5625 C 13.421875 -14.894531 13.953125 -13.832031 13.953125 -12.375 C 13.953125 -11.382812 13.71875 -10.570312 13.25 -9.9375 C 12.789062 -9.300781 12.175781 -8.921875 11.40625 -8.796875 L 11.40625 -8.6875 C 12.457031 -8.445312 13.210938 -8.003906 13.671875 -7.359375 C 14.140625 -6.722656 14.375 -5.875 14.375 -4.8125 C 14.375 -3.300781 13.828125 -2.117188 12.734375 -1.265625 C 11.640625 -0.421875 10.15625 0 8.28125 0 L 2.09375 0 Z M 5.59375 -10.015625 L 7.640625 -10.015625 C 8.585938 -10.015625 9.273438 -10.160156 9.703125 -10.453125 C 10.128906 -10.742188 10.34375 -11.234375 10.34375 -11.921875 C 10.34375 -12.554688 10.109375 -13.007812 9.640625 -13.28125 C 9.179688 -13.5625 8.453125 -13.703125 7.453125 -13.703125 L 5.59375 -13.703125 Z M 5.59375 -7.21875 L 5.59375 -2.90625 L 7.890625 -2.90625 C 8.859375 -2.90625 9.570312 -3.085938 10.03125 -3.453125 C 10.488281 -3.828125 10.71875 -4.394531 10.71875 -5.15625 C 10.71875 -6.53125 9.738281 -7.21875 7.78125 -7.21875 Z M 5.59375 -7.21875 "/></g></g></g><g fill="#ffffff" fill-opacity="1"><g transform="translate(275.07068, 88.881226)"><g><path d="M 12.234375 0 L 11.03125 -3.953125 L 4.984375 -3.953125 L 3.78125 0 L 0 0 L 5.84375 -16.640625 L 10.140625 -16.640625 L 16.015625 0 Z M 10.1875 -6.890625 C 9.082031 -10.460938 8.457031 -12.484375 8.3125 -12.953125 C 8.175781 -13.421875 8.078125 -13.789062 8.015625 -14.0625 C 7.765625 -13.101562 7.050781 -10.710938 5.875 -6.890625 Z M 10.1875 -6.890625 "/></g></g></g><g fill="#ffffff" fill-opacity="1"><g transform="translate(291.089136, 88.881226)"><g><path d="M 0.34375 4.875 C -0.445312 4.875 -1.132812 4.789062 -1.71875 4.625 L -1.71875 1.703125 C -1.113281 1.847656 -0.5625 1.921875 -0.0625 1.921875 C 0.707031 1.921875 1.257812 1.679688 1.59375 1.203125 C 1.925781 0.722656 2.09375 -0.0234375 2.09375 -1.046875 L 2.09375 -16.578125 L 5.59375 -16.578125 L 5.59375 -1.0625 C 5.59375 0.875 5.148438 2.347656 4.265625 3.359375 C 3.390625 4.367188 2.082031 4.875 0.34375 4.875 Z M 0.34375 4.875 "/></g></g></g><g fill="#ffffff" fill-opacity="1"><g transform="translate(298.775274, 88.881226)"><g><path d="M 17.125 -8.3125 C 17.125 -5.5625 16.441406 -3.445312 15.078125 -1.96875 C 13.722656 -0.5 11.773438 0.234375 9.234375 0.234375 C 6.703125 0.234375 4.753906 -0.5 3.390625 -1.96875 C 2.023438 -3.445312 1.34375 -5.566406 1.34375 -8.328125 C 1.34375 -11.085938 2.023438 -13.191406 3.390625 -14.640625 C 4.753906 -16.097656 6.710938 -16.828125 9.265625 -16.828125 C 11.804688 -16.828125 13.75 -16.09375 15.09375 -14.625 C 16.445312 -13.164062 17.125 -11.0625 17.125 -8.3125 Z M 5.03125 -8.3125 C 5.03125 -6.457031 5.378906 -5.0625 6.078125 -4.125 C 6.785156 -3.1875 7.835938 -2.71875 9.234375 -2.71875 C 12.046875 -2.71875 13.453125 -4.582031 13.453125 -8.3125 C 13.453125 -12.039062 12.054688 -13.90625 9.265625 -13.90625 C 7.867188 -13.90625 6.8125 -13.4375 6.09375 -12.5 C 5.382812 -11.5625 5.03125 -10.164062 5.03125 -8.3125 Z M 5.03125 -8.3125 "/></g></g></g><g fill="#ffffff" fill-opacity="1"><g transform="translate(317.253748, 88.881226)"><g/></g></g><g fill="#ffffff" fill-opacity="1"><g transform="translate(323.284759, 88.881226)"><g><path d="M 9.125 -13.890625 C 7.800781 -13.890625 6.773438 -13.390625 6.046875 -12.390625 C 5.328125 -11.398438 4.96875 -10.019531 4.96875 -8.25 C 4.96875 -4.550781 6.351562 -2.703125 9.125 -2.703125 C 10.289062 -2.703125 11.703125 -2.992188 13.359375 -3.578125 L 13.359375 -0.625 C 11.992188 -0.0507812 10.472656 0.234375 8.796875 0.234375 C 6.390625 0.234375 4.546875 -0.492188 3.265625 -1.953125 C 1.984375 -3.421875 1.34375 -5.523438 1.34375 -8.265625 C 1.34375 -9.984375 1.65625 -11.488281 2.28125 -12.78125 C 2.914062 -14.082031 3.816406 -15.078125 4.984375 -15.765625 C 6.160156 -16.460938 7.539062 -16.8125 9.125 -16.8125 C 10.738281 -16.8125 12.359375 -16.421875 13.984375 -15.640625 L 12.84375 -12.78125 C 12.226562 -13.082031 11.601562 -13.34375 10.96875 -13.5625 C 10.34375 -13.78125 9.726562 -13.890625 9.125 -13.890625 Z M 9.125 -13.890625 "/></g></g></g><g fill="#ffffff" fill-opacity="1"><g transform="translate(338.078874, 88.881226)"><g><path d="M 17.125 -8.3125 C 17.125 -5.5625 16.441406 -3.445312 15.078125 -1.96875 C 13.722656 -0.5 11.773438 0.234375 9.234375 0.234375 C 6.703125 0.234375 4.753906 -0.5 3.390625 -1.96875 C 2.023438 -3.445312 1.34375 -5.566406 1.34375 -8.328125 C 1.34375 -11.085938 2.023438 -13.191406 3.390625 -14.640625 C 4.753906 -16.097656 6.710938 -16.828125 9.265625 -16.828125 C 11.804688 -16.828125 13.75 -16.09375 15.09375 -14.625 C 16.445312 -13.164062 17.125 -11.0625 17.125 -8.3125 Z M 5.03125 -8.3125 C 5.03125 -6.457031 5.378906 -5.0625 6.078125 -4.125 C 6.785156 -3.1875 7.835938 -2.71875 9.234375 -2.71875 C 12.046875 -2.71875 13.453125 -4.582031 13.453125 -8.3125 C 13.453125 -12.039062 12.054688 -13.90625 9.265625 -13.90625 C 7.867188 -13.90625 6.8125 -13.4375 6.09375 -12.5 C 5.382812 -11.5625 5.03125 -10.164062 5.03125 -8.3125 Z M 5.03125 -8.3125 "/></g></g></g><g fill="#ffffff" fill-opacity="1"><g transform="translate(356.557348, 88.881226)"><g><path d="M 16.796875 0 L 12.328125 0 L 5.109375 -12.53125 L 5.015625 -12.53125 C 5.148438 -10.320312 5.21875 -8.742188 5.21875 -7.796875 L 5.21875 0 L 2.09375 0 L 2.09375 -16.578125 L 6.515625 -16.578125 L 13.71875 -4.15625 L 13.796875 -4.15625 C 13.679688 -6.3125 13.625 -7.835938 13.625 -8.734375 L 13.625 -16.578125 L 16.796875 -16.578125 Z M 16.796875 0 "/></g></g></g><g fill="#ffffff" fill-opacity="1"><g transform="translate(375.432598, 88.881226)"><g><path d="M 8.484375 0 L 4.96875 0 L 4.96875 -13.65625 L 0.46875 -13.65625 L 0.46875 -16.578125 L 12.984375 -16.578125 L 12.984375 -13.65625 L 8.484375 -13.65625 Z M 8.484375 0 "/></g></g></g><g fill="#ffffff" fill-opacity="1"><g transform="translate(388.877671, 88.881226)"><g><path d="M 5.59375 -9.21875 L 6.734375 -9.21875 C 7.847656 -9.21875 8.664062 -9.398438 9.1875 -9.765625 C 9.71875 -10.140625 9.984375 -10.722656 9.984375 -11.515625 C 9.984375 -12.304688 9.710938 -12.867188 9.171875 -13.203125 C 8.628906 -13.535156 7.796875 -13.703125 6.671875 -13.703125 L 5.59375 -13.703125 Z M 5.59375 -6.359375 L 5.59375 0 L 2.09375 0 L 2.09375 -16.578125 L 6.921875 -16.578125 C 9.171875 -16.578125 10.832031 -16.164062 11.90625 -15.34375 C 12.988281 -14.519531 13.53125 -13.273438 13.53125 -11.609375 C 13.53125 -10.628906 13.257812 -9.757812 12.71875 -9 C 12.1875 -8.25 11.429688 -7.65625 10.453125 -7.21875 C 12.941406 -3.488281 14.566406 -1.082031 15.328125 0 L 11.421875 0 L 7.46875 -6.359375 Z M 5.59375 -6.359375 "/></g></g></g><g fill="#ffffff" fill-opacity="1"><g transform="translate(404.204601, 88.881226)"><g><path d="M 17.125 -8.3125 C 17.125 -5.5625 16.441406 -3.445312 15.078125 -1.96875 C 13.722656 -0.5 11.773438 0.234375 9.234375 0.234375 C 6.703125 0.234375 4.753906 -0.5 3.390625 -1.96875 C 2.023438 -3.445312 1.34375 -5.566406 1.34375 -8.328125 C 1.34375 -11.085938 2.023438 -13.191406 3.390625 -14.640625 C 4.753906 -16.097656 6.710938 -16.828125 9.265625 -16.828125 C 11.804688 -16.828125 13.75 -16.09375 15.09375 -14.625 C 16.445312 -13.164062 17.125 -11.0625 17.125 -8.3125 Z M 5.03125 -8.3125 C 5.03125 -6.457031 5.378906 -5.0625 6.078125 -4.125 C 6.785156 -3.1875 7.835938 -2.71875 9.234375 -2.71875 C 12.046875 -2.71875 13.453125 -4.582031 13.453125 -8.3125 C 13.453125 -12.039062 12.054688 -13.90625 9.265625 -13.90625 C 7.867188 -13.90625 6.8125 -13.4375 6.09375 -12.5 C 5.382812 -11.5625 5.03125 -10.164062 5.03125 -8.3125 Z M 5.03125 -8.3125 "/></g></g></g><g fill="#ffffff" fill-opacity="1"><g transform="translate(422.683075, 88.881226)"><g><path d="M 2.09375 0 L 2.09375 -16.578125 L 5.59375 -16.578125 L 5.59375 -2.90625 L 12.328125 -2.90625 L 12.328125 0 Z M 2.09375 0 "/></g></g></g></svg>